# xmcd CD database file generated by freedbAccess_ocx
#
# Track frame offsets:
#       150
#       9068
#       17939
#       26670
#       37754
#       43597
#       54774
#       63505
#       73970
#       85457
#       98331
#       104249
#       115539
#       121176
#       132653
#       140474
#       154220
#       171971
#       177542
#       189479
#       196681
#
# Disc length: 2711 seconds
#
# Revision: 0
# Processed by: cddbd v1.5.1PL0 Copyright (c) Steve Scherf et al.
# Submitted via: CDnGo 2.00
#
DISCID=1b0a9515
DTITLE=Sing and Joy - Sing and Joy 1
DYEAR=1900
DGENRE=Gospel
TTITLE0=Good News Chariot's Coming
TTITLE1=Come To Me
TTITLE2=Is There Anybody Here
TTITLE3=By And By
TTITLE4=Free At Last
TTITLE5=Nobody Knows
TTITLE6=Amen
TTITLE7=Elijah Rock
TTITLE8=Deep River
TTITLE9=Glorious Kingdom
TTITLE10=Joshua Fit The Battle Of Jericho
TTITLE11=Swing Low
TTITLE12=This Little Light Of Mine
TTITLE13=He Never Said A Mumblin' Word
TTITLE14=I Can Tell The World
TTITLE15=Autumn Leaves
TTITLE16=Over The Rainbow
TTITLE17=I Heard The Bells On Christmasday
TTITLE18=The Holy And The Ivy
TTITLE19=Angels From The Realms Of Glory
TTITLE20=An Irish Blessing
EXTD=
EXTT0=
EXTT1=
EXTT2=
EXTT3=
EXTT4=
EXTT5=
EXTT6=
EXTT7=
EXTT8=
EXTT9=
EXTT10=
EXTT11=
EXTT12=
EXTT13=
EXTT14=
EXTT15=
EXTT16=
EXTT17=
EXTT18=
EXTT19=
EXTT20=
PLAYORDER=
